<?xml version="1.0" encoding="utf-8"?>
<!-- Generator: Adobe Illustrator 27.5.0, SVG Export Plug-In . SVG Version: 6.00 Build 0)  -->
<svg version="1.1" xmlns="http://www.w3.org/2000/svg" xmlns:xlink="http://www.w3.org/1999/xlink" x="0px" y="0px"
	 viewBox="0 0 750 500" style="enable-background:new 0 0 750 500;" xml:space="preserve">
<g id="Plants">
	<g id="freepik--Plants--inject-32">
		<path style="fill:#263238;" d="M439.364,406.288c-0.068,0,1.196-4.056,1.305-4.299c1.264-2.853,5.408-7.625,8.855-7.26
			c2.264,0.304,3.854,2.386,3.549,4.651c-0.02,0.146-0.047,0.29-0.082,0.432c-0.5,2.413-2.907,4.265-5.016,5.266
			C445.502,406.241,439.364,406.288,439.364,406.288z"/>
		<g>
			<path style="fill:#263238;" d="M701.001,359.868c-2.504-1.091-6.583-5.676-6.588-5.684c-0.005-0.008,3.837-1.754,4.093-1.845
				c2.98-0.93,9.276-0.966,11.295,1.877c1.264,1.899,0.75,4.463-1.149,5.727c-0.126,0.084-0.256,0.16-0.39,0.23
				C706.115,361.386,703.137,360.796,701.001,359.868z"/>
			<path style="fill:#263238;" d="M636.5,385.435c-1.546,1.119-2.965,2.181-4.245,3.17l-2.373-0.649
				c1.612-1.206,3.5-2.547,5.567-4.006c1.211-0.839,2.524-1.72,3.88-2.604c-0.622-1.412-1.162-2.858-1.618-4.332
				c-2.312,0.125-6.589-1.249-7.143-1.428c-0.545,1.351-1.059,2.668-1.528,3.92c-1.068,2.827-1.935,5.357-2.64,7.498l-1.956-0.535
				c0.763-2.174,1.713-4.752,2.864-7.626c0.55-1.37,1.159-2.829,1.804-4.314c-0.501-0.319-4.563-2.916-5.799-4.803
				c-1.123-1.709-2.072-4.211-1.338-6.253c0.616-1.912,2.664-2.962,4.576-2.347c0.122,0.039,0.242,0.085,0.359,0.137
				c2.77,1.325,3.658,6.789,3.293,9.507c-0.041,0.15-0.45,1.874-0.736,2.945c0.27-0.627,0.517-1.197,0.791-1.816
				c0.552-1.251,1.133-2.451,1.731-3.766c0.323-0.617,0.648-1.243,0.976-1.877c0.309-0.616,0.725-1.266,1.09-1.909
				c0.872-1.471,1.827-2.913,2.823-4.351c-1.08-0.485-4.885-2.254-6.261-3.78c-1.377-1.526-2.682-3.852-2.269-5.975
				c0.303-1.985,2.158-3.349,4.144-3.046c0.137,0.021,0.274,0.05,0.408,0.086c2.939,0.888,4.62,6.169,4.701,8.896
				c0.003,0.169-0.187,2.142-0.307,3.224c0.606-0.857,1.205-1.717,1.844-2.565c1.848-2.452,3.794-4.877,5.725-7.299
				c0.589-0.743,1.171-1.488,1.753-2.233c-0.382-0.168-4.949-2.174-6.494-3.879c-1.362-1.529-2.682-3.852-2.269-5.975
				c0.303-1.986,2.158-3.349,4.144-3.046c0.138,0.021,0.274,0.05,0.408,0.087c2.939,0.888,4.62,6.169,4.694,8.895
				c0.007,0.205-0.266,3.046-0.37,3.76c1.289-1.638,2.554-3.289,3.733-4.964c1.608-2.257,3.07-4.614,4.377-7.058
				c-0.189-0.052-4.958-2.141-6.539-3.891c-1.364-1.522-2.683-3.846-2.269-5.975c0.308-1.989,2.169-3.351,4.158-3.043
				c0.133,0.02,0.264,0.048,0.394,0.083c2.939,0.888,4.62,6.169,4.692,8.901c0.008,0.177-0.199,2.342-0.318,3.368l0.169,0.046
				c1.244-2.493,2.262-5.092,3.043-7.766c0.45-1.467,0.794-2.901,1.105-4.295c-0.928-0.296-5.146-1.681-6.753-3.109
				c-1.607-1.428-3.092-3.53-2.911-5.702c0.099-2.006,1.805-3.552,3.811-3.453c0.13,0.006,0.26,0.02,0.388,0.04
				c3.015,0.558,5.291,5.61,5.641,8.327c0.023,0.147,0.047,1.674,0.052,2.782c0.13-0.63,0.274-1.285,0.384-1.892
				c0.421-2.282,0.671-4.4,0.875-6.271c0.11-1.07,0.19-2.051,0.245-2.946c-0.759-0.761-3.788-3.881-4.533-5.844
				c-0.745-1.963-1.116-4.552,0.038-6.388c1.01-1.736,3.236-2.325,4.972-1.315c0.112,0.065,0.221,0.137,0.326,0.214
				c2.42,1.888,2.113,7.418,1.17,9.991c-0.063,0.228-1.758,3.556-1.796,3.517l-0.052-0.014c-0.042,0.871-0.094,1.803-0.177,2.825
				c-0.166,1.889-0.395,4.006-0.739,6.315c-0.379,2.483-0.902,4.942-1.566,7.364c-0.721,2.719-1.68,5.369-2.867,7.919
				c-0.009,0.033-0.018,0.065-0.027,0.098c0.615-0.659,2.397-2.435,2.549-2.554c2.143-1.712,7.298-3.75,9.853-2.049
				c1.641,1.159,2.031,3.428,0.873,5.068c-0.075,0.106-0.155,0.207-0.24,0.305c-1.377,1.677-4.01,2.134-6.055,2.051
				c-2.308-0.092-6.778-2.352-7.137-2.527c-1.285,2.559-2.738,5.029-4.349,7.395c-0.932,1.385-1.915,2.749-2.918,4.107
				c0.55-0.55,1.041-1.04,1.12-1.095c2.143-1.712,7.291-3.752,9.853-2.049c1.64,1.153,2.035,3.417,0.882,5.057
				c-0.077,0.11-0.16,0.215-0.249,0.316c-1.377,1.677-4.004,2.135-6.049,2.053c-2.045-0.083-5.926-1.93-6.939-2.431
				c-0.393,0.516-0.774,1.036-1.166,1.545c-1.881,2.471-3.765,4.927-5.527,7.395c-0.624,0.873-1.187,1.778-1.798,2.627
				c0.491-0.489,0.904-0.895,0.962-0.956c2.142-1.706,7.29-3.745,9.851-2.043c1.64,1.153,2.035,3.417,0.882,5.057
				c-0.077,0.11-0.16,0.215-0.249,0.316c-1.375,1.67-4.004,2.135-6.049,2.053c-2.045-0.083-5.553-1.757-6.759-2.346
				c-0.573,0.916-1.154,1.836-1.669,2.746c-0.328,0.611-0.702,1.21-1.009,1.868l-0.942,1.908c-0.552,1.251-1.124,2.496-1.631,3.709
				c-0.365,0.846-0.691,1.654-1.019,2.469c0.609-0.871,1.849-2.557,1.968-2.685c1.704-1.709,3.817-2.952,6.139-3.612
				c0.18-0.199,0.379-0.379,0.596-0.538c1.563-1.255,3.848-1.005,5.103,0.558c0.082,0.102,0.158,0.208,0.228,0.318
				c1.585,2.634-0.699,7.679-2.497,9.745c-0.104,0.126-1.403,1.312-2.242,2.05c0.56-0.358,1.091-0.711,1.695-1.071
				c1.138-0.726,2.286-1.414,3.527-2.161l1.859-1.033c0.61-0.359,1.3-0.654,1.954-0.993c1.541-0.742,3.135-1.42,4.77-2.066
				c-0.631-0.999-2.828-4.572-3.102-6.595c-0.273-2.023-0.118-4.692,1.405-6.238c1.36-1.473,3.656-1.565,5.129-0.205
				c0.096,0.089,0.188,0.183,0.274,0.282c1.962,2.359,0.481,7.693-0.993,10.009c-0.088,0.144-1.331,1.689-2.028,2.522
				c0.974-0.385,1.949-0.77,2.95-1.127c2.894-1.023,5.85-1.967,8.803-2.925l2.698-0.895c-0.233-0.351-2.961-4.545-3.27-6.823
				c-0.301-2.024-0.12-4.686,1.403-6.232c1.365-1.473,3.666-1.56,5.139-0.195c0.093,0.086,0.181,0.176,0.264,0.271
				c1.96,2.365,0.48,7.7-0.995,10.015c-0.11,0.173-1.901,2.388-2.385,2.929c1.981-0.657,3.947-1.338,5.853-2.078
				c2.586-0.996,5.106-2.156,7.544-3.473c-0.11-0.163-2.965-4.532-3.296-6.858c-0.3-2.03-0.118-4.693,1.398-6.24
				c1.365-1.473,3.666-1.56,5.139-0.195c0.093,0.086,0.181,0.177,0.264,0.272c1.966,2.367,0.48,7.7-0.988,10.017
				c-0.097,0.149-1.464,1.842-2.121,2.629l0.11,0.135c2.417-1.392,4.702-3,6.829-4.803c1.184-0.972,2.264-1.974,3.286-2.969
				c-0.613-0.756-3.371-4.251-3.913-6.319c-0.542-2.068-0.636-4.645,0.707-6.352c1.19-1.618,3.466-1.965,5.084-0.775
				c0.103,0.076,0.202,0.157,0.296,0.243c2.219,2.135,1.32,7.6,0.114,10.06c-0.039,0.143-0.886,1.419-1.492,2.353
				c0.455-0.457,0.952-0.917,1.362-1.366c1.611-1.662,3.005-3.299,4.194-4.753c0.676-0.831,1.278-1.599,1.822-2.305
				c-0.214-1.061-1.016-5.331-0.554-7.377s1.58-4.417,3.561-5.333c1.806-0.887,3.989-0.142,4.876,1.664
				c0.055,0.111,0.103,0.225,0.146,0.341c0.975,2.916-2.327,7.353-4.558,8.978c-0.185,0.138-3.42,2.001-3.432,1.941l-0.018-0.061
				c-0.516,0.707-1.098,1.452-1.704,2.26c-1.177,1.486-2.523,3.15-4.131,4.855c-1.684,1.864-3.477,3.627-5.369,5.28
				c-2.108,1.864-4.379,3.537-6.784,4.998c-0.029,0.014-0.057,0.03-0.083,0.047c0.87-0.21,3.341-0.712,3.535-0.729
				c2.729-0.242,8.163,0.901,9.345,3.727c0.729,1.867-0.194,3.972-2.061,4.702c-0.124,0.049-0.251,0.09-0.38,0.125
				c-2.067,0.64-4.517-0.422-6.179-1.62c-1.872-1.353-4.354-5.704-4.555-6.046c-2.483,1.424-5.058,2.682-7.708,3.764
				c-1.573,0.628-3.143,1.243-4.7,1.812c0.745-0.161,1.45-0.304,1.541-0.279c2.729-0.242,8.161,0.908,9.343,3.733
				c0.729,1.867-0.194,3.972-2.061,4.701c-0.124,0.049-0.251,0.09-0.38,0.125c-2.067,0.64-4.515-0.429-6.177-1.627
				c-1.663-1.198-3.879-4.88-4.444-5.862l-1.827,0.657c-2.928,1.021-5.859,2.027-8.704,3.099c-1.002,0.385-1.969,0.793-2.949,1.198
				l1.339-0.257c2.729-0.242,8.161,0.908,9.344,3.733c0.731,1.867-0.19,3.973-2.057,4.703c-0.124,0.048-0.25,0.09-0.378,0.125
				c-2.072,0.632-4.521-0.431-6.184-1.629c-1.663-1.198-3.672-4.508-4.338-5.686c-0.98,0.433-1.976,0.896-2.905,1.371
				c-0.632,0.339-1.263,0.621-1.878,1l-1.834,1.068c-1.138,0.726-2.315,1.469-3.405,2.201c-0.759,0.493-1.485,0.996-2.211,1.498
				c1.006-0.426,2.953-1.112,3.12-1.158c2.671-0.671,8.189-0.346,9.799,2.274c1.007,1.738,0.414,3.963-1.324,4.97
				c-0.114,0.066-0.231,0.125-0.351,0.179c-1.954,0.944-4.535,0.259-6.361-0.675c-2.004-1.025-5.001-4.774-5.389-5.251
				C638.738,383.84,637.577,384.651,636.5,385.435z"/>
		</g>
		<g>
			<path style="fill:#263238;" d="M53.093,365.208c2.266-0.88,6.045-4.81,6.045-4.81s-3.344-1.701-3.572-1.787
				c-2.609-0.928-8.2-1.186-10.111,1.284c-1.186,1.644-0.814,3.938,0.83,5.124c0.107,0.077,0.217,0.148,0.332,0.213
				C48.501,366.378,51.166,365.961,53.093,365.208z"/>
			<path style="fill:#263238;" d="M91.525,332.622c0.053-0.012-1.853-3.262-1.996-3.457c-1.665-2.209-6.183-5.504-9.12-4.497
				c-1.897,0.713-2.857,2.83-2.144,4.727c0.047,0.125,0.101,0.248,0.162,0.368c0.919,1.987,3.377,3.102,5.401,3.542
				C86.204,333.822,91.519,332.623,91.525,332.622z"/>
			<path style="fill:#263238;" d="M109.471,390.14c1.332,1.044,2.554,2.037,3.657,2.961l2.133-0.495
				c-1.393-1.127-3.006-2.397-4.803-3.743c-1.051-0.79-2.185-1.61-3.344-2.451c0.61-1.233,1.148-2.5,1.611-3.795
				c2.049,0.218,5.89-0.874,6.391-1.018c0.435,1.217,0.843,2.407,1.216,3.534c0.847,2.544,1.535,4.82,2.086,6.747l1.725-0.4
				c-0.597-1.943-1.354-4.28-2.289-6.873c-0.44-1.237-0.934-2.559-1.446-3.897c0.454-0.258,4.149-2.427,5.303-4.061
				c1.045-1.478,1.987-3.667,1.409-5.503c-0.477-1.716-2.254-2.72-3.97-2.244c-0.113,0.031-0.225,0.069-0.334,0.113
				c-2.525,1.079-3.488,5.902-3.259,8.327c0.032,0.138,0.334,1.678,0.558,2.646c-0.217-0.546-0.418-1.083-0.644-1.641
				c-0.445-1.111-0.922-2.208-1.426-3.395c-0.269-0.562-0.533-1.132-0.804-1.701c-0.271-0.569-0.6-1.151-0.902-1.734
				c-0.72-1.339-1.518-2.653-2.356-3.964c0.979-0.387,4.433-1.827,5.684-3.137c1.25-1.31,2.518-3.325,2.255-5.235
				c-0.216-1.771-1.826-3.033-3.598-2.817c-0.114,0.014-0.227,0.034-0.338,0.06c-2.617,0.684-4.322,5.298-4.452,7.729
				c-0.006,0.154,0.089,1.908,0.16,2.871c-0.508-0.784-1.008-1.563-1.549-2.34c-1.554-2.242-3.199-4.455-4.825-6.68
				c-0.503-0.674-1.008-1.355-1.487-2.042c0.35-0.137,4.456-1.728,5.9-3.222c1.265-1.307,2.518-3.325,2.255-5.235
				c-0.212-1.772-1.82-3.036-3.592-2.825c-0.114,0.014-0.227,0.033-0.339,0.059c-2.617,0.684-4.321,5.305-4.45,7.736
				c-0.013,0.183,0.129,2.711,0.201,3.347c-1.091-1.502-2.154-3.004-3.135-4.539c-1.349-2.057-2.562-4.2-3.633-6.415
				c0.165-0.038,4.456-1.728,5.932-3.236c1.265-1.307,2.518-3.325,2.255-5.235c-0.212-1.772-1.82-3.036-3.592-2.825
				c-0.114,0.014-0.227,0.033-0.339,0.059c-2.617,0.684-4.32,5.305-4.45,7.736c-0.012,0.156,0.09,2.061,0.169,3l-0.151,0.035
				c-1.087-2.238-1.971-4.569-2.643-6.964c-0.345-1.308-0.602-2.594-0.83-3.846c0.843-0.196,4.641-1.32,6.103-2.526
				c1.462-1.207,2.872-3.026,2.786-4.949c-0.02-1.788-1.485-3.222-3.273-3.202c-0.111,0.001-0.221,0.008-0.331,0.021
				c-2.684,0.394-4.896,4.8-5.271,7.191c-0.019,0.129-0.099,1.487-0.121,2.47c-0.09-0.569-0.198-1.154-0.276-1.698
				c-0.294-2.013-0.447-3.928-0.557-5.602c-0.061-0.95-0.094-1.81-0.115-2.617c0.701-0.655,3.498-3.317,4.224-5.033
				c0.726-1.716,1.152-4.007,0.19-5.672c-0.838-1.575-2.795-2.173-4.37-1.335c-0.1,0.053-0.198,0.112-0.292,0.175
				c-2.219,1.59-2.139,6.512-1.419,8.837c0.047,0.204,1.441,3.219,1.435,3.192l0.053-0.012c0.006,0.776,0.019,1.605,0.057,2.52
				c0.076,1.675,0.184,3.573,0.439,5.63c0.249,2.218,0.627,4.419,1.134,6.593c0.554,2.43,1.321,4.806,2.293,7.101l0.018,0.079
				c-0.515-0.574-2.039-2.24-2.17-2.355c-1.847-1.591-6.38-3.571-8.673-2.151c-1.495,0.968-1.922,2.964-0.954,4.459
				c0.064,0.099,0.134,0.195,0.209,0.287c1.161,1.535,3.478,2.038,5.327,2.025c2.079-0.01,6.1-1.852,6.42-1.996
				c1.06,2.315,2.276,4.555,3.638,6.706c0.779,1.263,1.602,2.508,2.445,3.749c-0.472-0.508-0.915-0.953-0.93-1.019
				c-1.847-1.591-6.347-3.579-8.673-2.151c-1.495,0.968-1.922,2.964-0.954,4.459c0.064,0.099,0.134,0.195,0.209,0.287
				c1.161,1.535,3.478,2.038,5.327,2.025c1.85-0.013,5.325-1.513,6.244-1.921c0.325,0.473,0.65,0.946,0.981,1.417
				c1.585,2.255,3.175,4.502,4.662,6.753c0.531,0.793,1.016,1.596,1.52,2.423c-0.417-0.451-0.775-0.826-0.835-0.875
				c-1.847-1.591-6.38-3.571-8.673-2.151c-1.495,0.968-1.922,2.964-0.954,4.459c0.064,0.099,0.134,0.195,0.209,0.287
				c1.161,1.535,3.484,2.037,5.327,2.025c1.843-0.011,4.985-1.365,6.08-1.848c0.478,0.833,0.962,1.664,1.384,2.496
				c0.279,0.574,0.59,1.105,0.837,1.693c0.247,0.588,0.512,1.158,0.768,1.723c0.445,1.111,0.913,2.259,1.32,3.358
				c0.294,0.758,0.554,1.488,0.821,2.224c-0.518-0.796-1.554-2.332-1.659-2.453c-1.477-1.603-3.346-2.793-5.423-3.453
				c-0.152-0.182-0.321-0.35-0.505-0.5c-1.348-1.17-3.388-1.025-4.558,0.323c-0.075,0.086-0.145,0.177-0.21,0.27
				c-1.496,2.283,0.349,6.858,1.876,8.745c0.095,0.11,1.204,1.212,1.925,1.899c-0.488-0.338-0.948-0.675-1.458-1.05
				c-0.984-0.681-1.983-1.337-3.067-2.064l-1.615-0.978c-0.53-0.342-1.131-0.626-1.705-0.951c-1.337-0.71-2.733-1.371-4.149-2
				c0.604-0.834,2.669-3.957,3.008-5.757c0.339-1.799,0.271-4.157-1.025-5.584c-1.155-1.36-3.194-1.526-4.554-0.371
				c-0.088,0.075-0.172,0.154-0.251,0.237c-1.827,2.027-0.695,6.816,0.524,8.899c0.078,0.128,1.128,1.542,1.722,2.307
				c-0.858-0.377-1.709-0.755-2.587-1.1c-2.531-1.009-5.123-1.955-7.711-2.909l-2.351-0.801c0.213-0.306,2.764-3.937,3.138-5.946
				c0.335-1.785,0.271-4.157-1.025-5.584c-1.155-1.36-3.194-1.527-4.554-0.371c-0.088,0.074-0.172,0.154-0.251,0.237
				c-1.82,2.025-0.695,6.816,0.531,8.898c0.092,0.159,1.604,2.188,2.011,2.684c-1.734-0.652-3.45-1.323-5.125-2.051
				c-2.26-0.965-4.454-2.079-6.568-3.334c0.099-0.141,2.777-3.913,3.159-5.972c0.342-1.786,0.269-4.163-1.025-5.584
				c-1.155-1.36-3.194-1.527-4.554-0.371c-0.088,0.075-0.172,0.154-0.251,0.237c-1.82,2.025-0.695,6.816,0.531,8.898
				c0.08,0.134,1.231,1.685,1.794,2.408l-0.105,0.115c-2.096-1.323-4.071-2.829-5.902-4.501c-1.014-0.903-1.937-1.827-2.816-2.747
				c0.544-0.647,3.142-3.657,3.697-5.479c0.556-1.822,0.721-4.102-0.412-5.664c-0.996-1.476-3-1.865-4.476-0.87
				c-0.096,0.065-0.189,0.135-0.277,0.21c-2.035,1.818-1.442,6.705-0.453,8.932c0.029,0.125,0.736,1.287,1.244,2.133
				c-0.388-0.417-0.8-0.848-1.166-1.256c-1.371-1.542-2.536-3.034-3.553-4.366c-0.579-0.761-1.082-1.463-1.546-2.118
				c0.227-0.934,1.088-4.701,0.754-6.531c-0.335-1.831-1.256-3.976-2.98-4.86c-1.569-0.851-3.53-0.269-4.381,1.299
				c-0.054,0.099-0.103,0.202-0.146,0.306c-0.968,2.556,1.811,6.609,3.718,8.158c0.17,0.134,2.972,1.892,2.989,1.846
				c-0.002-0.018-0.006-0.036-0.012-0.053c0.435,0.648,0.912,1.329,1.444,2.066c1.008,1.355,2.127,2.886,3.469,4.455
				c1.436,1.713,2.972,3.34,4.6,4.872c1.805,1.729,3.761,3.293,5.845,4.674l0.08,0.044c-0.746-0.223-2.949-0.745-3.114-0.769
				c-2.417-0.307-7.263,0.519-8.425,2.989c-0.725,1.627,0.007,3.533,1.633,4.257c0.119,0.053,0.24,0.098,0.364,0.137
				c1.821,0.639,4.025-0.24,5.545-1.224c1.713-1.14,4.065-4.912,4.252-5.212c2.157,1.353,4.403,2.559,6.722,3.61
				c1.345,0.625,2.716,1.209,4.103,1.775l-1.359-0.323c-2.417-0.307-7.269,0.521-8.425,2.989c-0.722,1.632,0.015,3.54,1.647,4.262
				c0.114,0.051,0.231,0.095,0.351,0.132c1.819,0.633,4.024-0.24,5.543-1.231c1.519-0.991,3.613-4.197,4.151-5.05l1.599,0.642
				c2.565,1.008,5.129,2.009,7.654,3.081c0.876,0.366,1.725,0.766,2.579,1.157c-0.596-0.146-1.101-0.258-1.179-0.268
				c-2.418-0.313-7.264,0.513-8.426,2.982c-0.72,1.632,0.019,3.54,1.651,4.26c0.115,0.051,0.233,0.095,0.353,0.132
				c1.813,0.634,4.025-0.24,5.543-1.231c1.519-0.991,3.406-3.892,4.048-4.894c0.863,0.431,1.719,0.857,2.532,1.314
				c0.554,0.323,1.103,0.598,1.61,0.959l1.622,1.011c0.984,0.681,2.005,1.374,2.955,2.09c0.666,0.477,1.286,0.937,1.908,1.403
				c-0.864-0.375-2.582-1.08-2.732-1.129c-2.342-0.671-7.257-0.592-8.778,1.676c-0.952,1.51-0.499,3.505,1.01,4.456
				c0.096,0.061,0.196,0.116,0.299,0.167c1.701,0.903,4.019,0.393,5.666-0.371c1.816-0.845,4.606-4.073,4.969-4.484
				C107.57,388.645,108.546,389.411,109.471,390.14z"/>
		</g>
	</g>
</g>
<g id="Background_Simple">
	<g>
		<path style="fill:#92E3A9;" d="M555.909,49.138C496.843,14.173,418.247,26.48,362.894,68.453
			c-39.596,30.025-76.339,65.006-121.528,85.678c-34.72,15.882-74.402,23.511-100.304,53.656
			c-40.557,47.201-35.15,113.738-6.983,165.707c32.682,60.301,91.989,87.402,158.113,96.025
			c65.869,8.59,135.252-1.28,193.046-35.186c77.015-45.183,118.288-131.538,132.962-216.991
			C629.263,152.92,615.732,84.552,555.909,49.138z"/>
		<path style="opacity:0.7;fill:#FFFFFF;" d="M555.909,49.138C496.843,14.173,418.247,26.48,362.894,68.453
			c-39.596,30.025-76.339,65.006-121.528,85.678c-34.72,15.882-74.402,23.511-100.304,53.656
			c-40.557,47.201-35.15,113.738-6.983,165.707c32.682,60.301,91.989,87.402,158.113,96.025
			c65.869,8.59,135.252-1.28,193.046-35.186c77.015-45.183,118.288-131.538,132.962-216.991
			C629.263,152.92,615.732,84.552,555.909,49.138z"/>
	</g>
</g>
<g id="Interface">
	<g id="Capa_6">
		<g>
			<path style="fill:#FFFFFF;stroke:#263238;stroke-linecap:round;stroke-linejoin:round;stroke-miterlimit:10;" d="M632.148,96.458
				v327.662c0,8.462-6.861,15.323-15.323,15.323h-488.16c-8.462,0-15.323-6.861-15.323-15.323V96.458
				c0-0.219,0.009-0.438,0.018-0.648c0.324-7.902,6.633-14.256,14.518-14.658c0.263-0.009,0.525-0.018,0.788-0.018h488.16
				c0.263,0,0.525,0.009,0.788,0.018c7.885,0.403,14.194,6.756,14.518,14.658C632.139,96.021,632.148,96.24,632.148,96.458z"/>
			<path style="fill:#92E3A9;stroke:#263238;stroke-miterlimit:10;" d="M632.13,95.811H113.359
				c0.324-7.902,6.633-14.256,14.518-14.658c0.263-0.009,0.525-0.018,0.788-0.018h488.16c0.263,0,0.525,0.009,0.788,0.018
				C625.497,81.555,631.806,87.908,632.13,95.811z"/>
			<path style="fill:#263238;" d="M139.905,88.473c0,1.326-1.075,2.402-2.402,2.402s-2.402-1.075-2.402-2.402
				s1.075-2.402,2.402-2.402S139.905,87.146,139.905,88.473z"/>
			<path style="fill:#263238;" d="M149.365,88.473c0,1.326-1.075,2.402-2.402,2.402s-2.402-1.075-2.402-2.402
				s1.075-2.402,2.402-2.402S149.365,87.146,149.365,88.473z"/>
			<path style="fill:#263238;" d="M158.825,88.473c0,1.326-1.075,2.402-2.402,2.402s-2.402-1.075-2.402-2.402
				s1.075-2.402,2.402-2.402S158.825,87.146,158.825,88.473z"/>
		</g>
	</g>
	<g>
		
			<circle style="fill:#FFFFFF;stroke:#263238;stroke-linecap:round;stroke-linejoin:round;stroke-miterlimit:10;" cx="139.515" cy="242.73" r="12.31"/>
		<polyline style="fill:#FFFFFF;stroke:#263238;stroke-linecap:round;stroke-linejoin:round;stroke-miterlimit:10;" points="
			141.825,235.464 135.738,242.73 141.825,248.631 		"/>
	</g>
</g>
<g id="Progress_bar">
	<g>
		<g>
			<g>
				<g>
					<path style="fill:#263238;" d="M389.558,402.19c0,0-0.594,2.481,1.188,4.878c1.782,2.397,3.415,2.694,3.415,2.694v10.496
						c0,0-9.353,1.827-11.58,0.491c-1.514-0.908-1.45-5.658-1.254-8.607c0.091-1.368,1.167-2.459,2.534-2.573l3.025-0.252
						C386.885,409.316,386.143,401.002,389.558,402.19z"/>
					<rect x="395.546" y="409.316" style="fill:#263238;" width="3.415" height="11.134"/>
				</g>
				<g>
					<path style="fill:#263238;" d="M408.586,416.29v0.885c0,1.444-0.859,2.344-2.303,2.344c-1.443,0-2.302-0.9-2.302-2.344v-0.285
						l1.39-0.136v0.313c0,0.763,0.326,1.09,0.885,1.09c0.558,0,0.885-0.327,0.885-0.954v-0.995c0-0.762-0.327-1.089-1.089-1.089
						h-0.572v-1.362h0.477c0.762,0,1.089-0.327,1.089-1.09v-0.735c0-0.558-0.299-0.859-0.818-0.859
						c-0.517,0-0.818,0.301-0.818,0.995v0.217h-1.389v-0.326c0-1.377,0.831-2.249,2.234-2.249s2.234,0.872,2.234,2.249v0.627
						c0,0.858-0.354,1.484-1.022,1.825C408.205,414.75,408.586,415.391,408.586,416.29z"/>
					<path style="fill:#263238;" d="M409.747,417.216v-5.203c0-1.377,0.926-2.303,2.316-2.303c1.39,0,2.316,0.926,2.316,2.303v5.203
						c0,1.377-0.926,2.303-2.316,2.303C410.673,419.519,409.747,418.593,409.747,417.216z M412.935,417.216v-5.203
						c0-0.6-0.341-0.941-0.872-0.941c-0.531,0-0.872,0.341-0.872,0.941v5.203c0,0.6,0.341,0.941,0.872,0.941
						C412.594,418.157,412.935,417.816,412.935,417.216z"/>
					<path style="fill:#263238;" d="M420.527,415.459l-0.545,1.049v2.874h-1.444v-9.536h1.444v3.869l1.907-3.869h1.554l-2.03,4.047
						l2.18,5.49h-1.553L420.527,415.459z"/>
				</g>
			</g>
			<g>
				<path style="fill:#263238;" d="M446.195,426.509c0,0-0.594-2.481,1.188-4.878c1.782-2.397,3.415-2.694,3.415-2.694v-10.496
					c0,0-9.353-1.827-11.58-0.491c-1.514,0.908-1.45,5.658-1.253,8.607c0.091,1.368,1.167,2.459,2.534,2.573l3.025,0.252
					C443.523,419.383,442.78,427.696,446.195,426.509z"/>
				<rect x="452.684" y="408.248" style="fill:#263238;" width="3.415" height="11.135"/>
				<g>
					<path style="fill:#263238;" d="M464.729,411.897h-1.635v-1.008c1.117-0.082,1.785-0.531,2.071-1.049h1.007v9.536h-1.443
						V411.897z"/>
					<path style="fill:#263238;" d="M469.063,418.013h2.861v1.362h-4.578v-1.254l2.112-3.364c0.79-1.253,1.022-1.908,1.022-2.643
						c0-0.668-0.313-1.035-0.872-1.035c-0.558,0-0.872,0.367-0.872,1.035v0.559h-1.39v-0.45c0-1.553,0.845-2.506,2.275-2.506
						c1.431,0,2.303,0.885,2.303,2.356c0,1.036-0.314,1.88-1.28,3.42L469.063,418.013z"/>
					<path style="fill:#263238;" d="M472.975,417.195v-0.286l1.39-0.136v0.314c0,0.762,0.327,1.063,0.859,1.063
						c0.531,0,0.857-0.301,0.857-0.926v-2.207c0-0.559-0.299-0.831-0.762-0.831c-0.518,0-0.9,0.354-0.9,0.94v0.164h-1.389v-5.45
						h4.127v1.362h-2.739v2.37c0.204-0.367,0.722-0.694,1.377-0.694c1.076,0,1.729,0.763,1.729,1.921v2.397
						c0,1.444-0.857,2.316-2.275,2.316C473.833,419.512,472.975,418.64,472.975,417.195z"/>
				</g>
			</g>
		</g>
		<g>
			<polygon style="fill:#263238;" points="268.777,420.141 268.777,412.797 272.524,412.797 278.22,407.251 278.22,424.638 
				273.498,419.841 			"/>
			<path style="fill:#263238;" d="M283.771,415.95c0,2.324-1.426,4.318-3.459,5.136v-10.272
				C282.345,411.633,283.771,413.626,283.771,415.95z"/>
			<path style="fill:none;stroke:#263238;stroke-miterlimit:10;" d="M279.744,407.244c4.154,0.722,7.313,4.346,7.313,8.706
				c0,4.168-2.885,7.662-6.768,8.594"/>
		</g>
		<g>
			<g>
				<g>
					<path style="fill:#263238;" d="M206.677,424.15L206.677,424.15c-0.899,0-1.628-0.729-1.628-1.628v-12.094
						c0-0.899,0.729-1.628,1.628-1.628l0,0c0.899,0,1.628,0.729,1.628,1.628v12.094C208.305,423.421,207.576,424.15,206.677,424.15z
						"/>
					<path style="fill:#263238;" d="M213.189,424.15L213.189,424.15c-0.899,0-1.628-0.729-1.628-1.628v-12.094
						c0-0.899,0.729-1.628,1.628-1.628l0,0c0.899,0,1.628,0.729,1.628,1.628v12.094C214.818,423.421,214.089,424.15,213.189,424.15z
						"/>
				</g>
				<g>
					<path style="fill:#263238;" d="M174.229,408.952L174.229,408.952c0.906,0,1.641,0.735,1.641,1.641v12.19
						c0,0.906-0.735,1.641-1.641,1.641l0,0c-0.906,0-1.641-0.735-1.641-1.641v-12.19
						C172.588,409.687,173.322,408.952,174.229,408.952z"/>
					<path style="fill:#263238;" d="M186.402,410.263v12.777c0,0.56-0.646,0.872-1.085,0.525l-8.436-6.673
						c-0.348-0.276-0.337-0.807,0.023-1.068l8.436-6.104C185.783,409.4,186.402,409.716,186.402,410.263z"/>
				</g>
				<g>
					<path style="fill:#263238;" d="M245.465,423.778L245.465,423.778c-0.906-0.011-1.632-0.754-1.621-1.661l0.146-12.189
						c0.011-0.906,0.754-1.632,1.661-1.621l0,0c0.906,0.011,1.632,0.754,1.621,1.66l-0.146,12.189
						C247.114,423.063,246.371,423.789,245.465,423.778z"/>
					<path style="fill:#263238;" d="M233.308,422.321l0.153-12.776c0.007-0.56,0.656-0.865,1.091-0.512l8.355,6.774
						c0.345,0.28,0.327,0.811-0.036,1.067l-8.508,6.002C233.917,423.191,233.301,422.867,233.308,422.321z"/>
				</g>
			</g>
			<g>
				<path style="fill:#FFFFFF;stroke:#263238;stroke-linecap:round;stroke-linejoin:round;stroke-miterlimit:10;" d="
					M460.809,395.622H175.698c-4.921,0-8.91-3.989-8.91-8.91v-2.949c0-4.921,3.989-8.91,8.91-8.91h285.111
					c4.921,0,8.91,3.989,8.91,8.91v2.949C469.718,391.633,465.729,395.622,460.809,395.622z"/>
				<g>
					<g>
						<path style="fill:#263238;" d="M459.893,385.203c0,1.294-1.037,2.331-2.331,2.331H180.068c-1.294,0-2.331-1.037-2.331-2.331
							c0-1.282,1.037-2.331,2.331-2.331h277.494C458.856,382.872,459.893,383.921,459.893,385.203z"/>
					</g>
					<path style="fill:#92E3A9;" d="M250.231,382.872l-0.163,4.662h-70c-1.294,0-2.331-1.037-2.331-2.331
						c0-1.282,1.037-2.331,2.331-2.331H250.231z"/>
					<g>
						<path style="fill:#263238;" d="M255.277,384.733c0,3.507-2.843,6.35-6.35,6.35c-3.507,0-6.35-2.843-6.35-6.35
							c0-3.507,2.843-6.35,6.35-6.35C252.434,378.383,255.277,381.226,255.277,384.733z"/>
						<path style="fill:#FFFFFF;" d="M251.488,384.655c0,1.425-1.155,2.579-2.579,2.579s-2.579-1.155-2.579-2.579
							c0-1.424,1.155-2.579,2.579-2.579S251.488,383.23,251.488,384.655z"/>
					</g>
				</g>
			</g>
		</g>
	</g>
</g>
<g id="Window">
	<g>
		<g>
			<path style="fill:#FFFFFF;stroke:#263238;stroke-linecap:round;stroke-linejoin:round;stroke-miterlimit:10;" d="
				M480.948,146.402v196.155c0,8.143-6.608,14.751-14.751,14.751H181.539c-8.156,0-14.751-6.608-14.751-14.751V146.402
				c0-0.788,0.055-1.548,0.18-2.295c1.106-7.05,7.203-12.456,14.571-12.456h284.659c7.355,0,13.465,5.405,14.571,12.456
				C480.893,144.853,480.948,145.614,480.948,146.402z"/>
		</g>
		<rect x="172.155" y="108.026" style="fill:#263238;" width="101.092" height="10.706"/>
	</g>
</g>
<g id="Character">
	<g>
		<g>
			<g>
				<path style="fill:#FFFFFF;" d="M232.583,258.79c0,0,4.968,19.558,13.631,31.626c11.772,10.972,19.207,11.618,28.191,11.618
					c8.984,0,13.321-4.518,13.321-4.518l1.549-10.65l-4.647-16.458c0,0-16.419-18.717-22.305-23.558
					c-5.886-4.841-18.588-19.363-22.305-38.08c-3.718-18.717-9.604-27.431-9.604-27.431s-2.081-18.414-4.821-18.176
					c-2.74,0.238-5.709,10.467-5.024,17.009c0,0-7.193-5.233-9.363-7.255c-2.169-2.022-10.619-11.775-12.103-10.467
					c-1.484,1.308,3.54,14.511,10.847,20.696c0,0-5.595-0.833-9.134-4.401c-3.539-3.568-10.276-10.943-13.359-9.634
					c-3.083,1.308-2.398,4.282-2.398,4.282s-3.311,0.952-2.284,6.066c0,0-3.083,4.52,1.256,10.943
					c4.339,6.423,12.788,12.965,20.324,16.533c7.536,3.568,10.619,5.709,13.359,12.013
					C220.455,225.25,232.583,258.79,232.583,258.79z"/>
				<path style="opacity:0.2;fill:#263238;" d="M289.274,286.872l-0.995,6.788l-0.557,3.857c0,0-4.326,4.521-13.311,4.521
					c-8.985,0-16.43-0.65-28.201-11.626c-8.653-12.069-13.629-31.616-13.629-31.616s-12.13-33.538-14.863-39.842
					c-2.747-6.304-5.826-8.447-13.364-12.013c-7.538-3.581-15.978-10.119-20.318-16.534c-2.946-4.355-2.482-7.838-1.871-9.622
					c0.292-0.857,0.61-1.327,0.61-1.327c-1.022-5.115,2.283-6.069,2.283-6.069s-0.677-2.972,2.402-4.272
					c3.079-1.313,9.821,6.055,13.351,9.622c3.544,3.58,9.144,4.41,9.144,4.41c-7.312-6.193-12.329-19.396-10.856-20.695
					c1.486-1.313,9.94,8.447,12.103,10.465c2.176,2.018,9.369,7.258,9.369,7.258c-0.69-6.539,2.283-16.769,5.03-17.018
					c2.734-0.235,4.817,18.179,4.817,18.179s5.879,8.71,9.595,27.428c3.729,18.718,16.43,33.248,22.309,38.086
					c5.892,4.839,22.309,23.557,22.309,23.557L289.274,286.872z"/>
			</g>
			<path style="fill:#92E3A9;" d="M259.159,242.385c0,0,12.116-17.019,14.135-21.991c2.019-4.972,11.198-20.27,21.11-21.417
				c9.913-1.147,18.54-5.163,18.54-5.163l52.684,3.059c0,0,11.124,4.158,21.22,7.995c9.522,3.62,20.12,9.685,20.45,19.158
				c0.289,8.291,16.099,38.5,27.168,47.997l-43.444,13.225c0,0-1.516,12.62-8.231,17.656c0,0,14.707,34.388,8.65,54.849
				l-119.616-0.438c0,0-4.696-46.901,16.047-63.346c0,0-5.399-12.002-5.766-22.519C282.105,271.451,278.433,261.508,259.159,242.385
				z"/>
			<path style="opacity:0.1;fill:#263238;" d="M288.279,293.66l-4.596,4.884c0,0-1.9,2.978-9.921,3.239
				c-8.98,0.292-15.78-0.395-27.551-11.372c-8.653-12.069-13.629-31.616-13.629-31.616s-12.13-33.538-14.863-39.842
				c-2.747-6.304-5.826-8.447-13.364-12.013c-7.538-3.581-15.978-10.119-20.318-16.534c-2.946-4.355-2.482-7.838-1.871-9.622
				c3.596,1.991,7.857,5.516,10.975,7.811c6.198,3.733,10.511,6.636,16.828,10.078c12.541,6.843,19.11,21.428,23.874,35.321
				c4.764,13.894,8.998,28.796,19.296,38.916c5.879,5.793,13.391,9.58,21.207,11.737c4.711,1.286,10.073,2.364,12.807,6.553
				C287.655,291.973,288.026,292.802,288.279,293.66z"/>
			<path style="fill:#92E3A9;" d="M382.79,302.906c0.871,0.307,16.208,34.915,8.65,54.849l-66.852-0.437l-53.801-0.66
				c0,0-3.198-46.367,17.544-62.805c0,0-5.999-12.041-6.37-22.561c0,0-3.504-9.041-22.786-28.16c0,0,11.931-17.972,13.948-22.949
				c2.017-4.977,10.67-19.714,20.583-20.861c9.913-1.148,18.195-6.166,18.195-6.166l52.686,3.069c0,0,4.585,2.777,10.783,5.058
				c3.265,1.189,6.787,1.874,10.272,3.196c13.239,5.022,19.515,10.672,20.616,18.898c1.102,8.226,16.098,38.501,27.166,47.999
				l-43.874,15.096C389.55,286.471,387.741,298.883,382.79,302.906z"/>
			<path style="opacity:0.1;" d="M382.79,302.906c0,0,15.813,29.839,8.65,54.849l-66.852-0.437
				c-1.327-4.175-1.327-9.096-0.969-13.465c-1.354-2.558-0.345-5.696-0.239-8.613c0.172-4.507-1.898-8.765-4.167-12.594
				c-2.283-3.843-4.87-7.603-5.959-11.958c-1.088-4.368-0.279-9.622,3.212-12.304c3.888-2.972,9.277-1.728,13.988-0.622
				c7.737,1.825,15.779,2.903,23.583,1.438c7.79-1.465,15.381-5.737,19.588-12.732c0.956-1.562,1.725-3.276,2.031-5.101
				c0.358-2.24,0-4.521-0.385-6.76c-1.141-6.636-2.535-13.341-1.885-20.045c0.438-4.41,1.738-8.682,2.309-13.078
				c1.221-9.359-1.048-19.161-6.237-26.902c2.8-3.691,3.517-9.29,6.038-13.133c3.265,1.189,6.954,2.419,10.564,3.346
				c10.471,2.668,20.263,10.504,21.365,18.729s12.424,34.859,26.413,48.359l-42.766,12.929
				C391.071,284.81,389.897,297.918,382.79,302.906z"/>
			<g>
				<path style="fill:#FFFFFF;" d="M425.939,271.853c0,0,3.099-3.798,6.016-3.038c0,0,6.927,9.305,9.844,12.723
					c2.364,2.771,4.489,9.16,3.85,14.718c-0.252,2.186-1.457,4.156-3.295,5.367c-3.741,2.466-11.317,6.774-18.238,6.502
					c-9.662-0.38-25.887-7.976-31.538-19.94c-5.651-11.964-6.927-27.536-6.927-27.536s-7.474-8.166-6.38-16.142
					c1.094-7.976,6.073-18.842,7.23-21.954c1.156-3.113,2.614-7.48,4.62-6.911c2.005,0.57,4.663,7.611,0.652,19.385
					c0,0,3.358-0.015,5.91-4.193c2.552-4.178,10.43-22.727,15.365-16.969c0,0,4.541-3.153,6.449-0.068c0,0,3.422-2.262,3.525,0.706
					c0.153,4.381-1.288,14.855-1.288,14.855s3.619-2.718,3.619,3.359c0,6.077-2.098,17.072-9.937,23.719
					C415.416,256.435,419.558,266.535,425.939,271.853z"/>
				<path style="opacity:0.2;fill:#263238;" d="M445.648,296.258c-0.253,2.208-1.483,4.179-3.34,5.4
					c-3.521,2.315-10.367,6.21-16.888,6.462c-0.438,0.014-0.876,0.014-1.3,0c-9.661-0.373-25.892-7.977-31.545-19.935
					c-5.653-11.958-6.927-27.538-6.927-27.538s-7.472-8.17-6.384-16.147c1.102-7.963,6.078-18.829,7.233-21.953
					c1.155-3.111,2.614-7.479,4.618-6.898c2.004,0.567,4.671,7.603,0.65,19.382c0,0,3.358-0.014,5.919-4.203
					c2.548-4.175,10.431-22.727,15.368-16.962c0,0,4.539-3.152,6.45-0.069c0,0,3.411-2.267,3.517,0.705
					c0.146,3.857-0.969,12.47-1.234,14.447v0.014c-0.04,0.263-0.053,0.401-0.053,0.401s3.623-2.723,3.623,3.359
					c0,6.069-2.097,17.073-9.94,23.709c0,0,4.141,10.106,10.524,15.428c0,0,2.192-3.174,5.192-3.141c0,0,7.747,9.404,10.667,12.818
					C444.164,284.304,446.287,290.696,445.648,296.258z"/>
			</g>
			<g>
				<path style="fill:#FFFFFF;" d="M355.82,150.036l11.249-12.276l-0.536-15.624l-9.91-7.254l-50.352-18.414l-21.159,35.712
					c0,0,7.232,43.803,13.392,47.988c6.16,4.185,5.624,16.74,5.624,16.74s8.076,31.208,36.198,33.44
					c26.031,1.724,34.912-28.968,34.912-28.968s-15.438-5.471-18.652-14.12C353.373,178.612,355.82,150.036,355.82,150.036z"/>
				<g>
					<defs>
						<path id="XMLID_2_" d="M375.467,201.413c0,0-1.777,3.964-4.272,9.079l-0.013,0.028c-4.327,8.861-13.391,20.778-30.696,19.907
							c-28.135-2.226-36.363-33.87-36.363-33.87s0.544-12.553-5.614-16.741c-6.171-4.189-13.404-47.985-13.404-47.985l21.167-35.708
							l21.074,7.7l29.276,10.714l9.914,7.244l0.531,15.635l-11.254,12.276c0,0,3.444,27.659,2.15,36.828
							C356.783,194.891,375.467,201.413,375.467,201.413z"/>
					</defs>
					<use xlink:href="#XMLID_2_"  style="overflow:visible;opacity:0.2;fill:#263238;"/>
					<clipPath id="XMLID_00000163768192140760580520000003886067969082653602_">
						<use xlink:href="#XMLID_2_"  style="overflow:visible;opacity:0.2;"/>
					</clipPath>
					<path style="opacity:0.1;clip-path:url(#XMLID_00000163768192140760580520000003886067969082653602_);fill:#263238;" d="
						M375.304,201.478c0,0-1.614,3.898-4.108,9.013l-0.013,0.028l-0.965,1.915c-17.279-12.497-25.37-31.772-26.087-53.739
						c-0.08-2.226,1.843-29.883,2.739-29.87C320.913,128.435,305.391,103,305.391,103l21.957,0.823l29.276,10.714l9.914,7.244
						l0.531,15.635l-11.254,12.276c0,0,0.212,27.773,2.15,36.828C359.716,194.732,375.304,201.478,375.304,201.478z"/>
				</g>
			</g>
			
				<path style="fill:none;stroke:#263238;stroke-width:0.9798;stroke-linecap:round;stroke-linejoin:round;stroke-miterlimit:10;" d="
				M348.23,130.894c0,0,3.66-9.87,11.176-7.965c7.515,1.904,4.053,22.06-2.65,23.964c-6.703,1.904-7.109-4.02-7.109-4.02"/>
			
				<path style="fill:none;stroke:#263238;stroke-width:0.9798;stroke-linecap:round;stroke-linejoin:round;stroke-miterlimit:10;" d="
				M313.263,132.728c-0.007-0.201-0.014-0.403-0.022-0.604c0.122,2.273,0.627,4.517,0.648,6.793c0.021,2.277-0.53,4.706-2.145,6.24
				c-1.069,1.016-2.645,1.755-2.861,3.245c-0.117,0.806,0.226,1.603,0.597,2.321c0.589,1.139,1.289,2.246,2.261,3.053
				c0.972,0.807,2.254,1.283,3.472,1.032"/>
			
				<path style="fill:#FFFFFF;stroke:#263238;stroke-width:0.9798;stroke-linecap:round;stroke-linejoin:round;stroke-miterlimit:10;" d="
				M312.773,164.002c0,0,15.718-3.424,19.304-14.581c0,0,2.53,11.861-4.586,16.804C319.504,171.771,312.773,164.002,312.773,164.002
				z"/>
			
				<path style="fill:none;stroke:#263238;stroke-width:0.9798;stroke-linecap:round;stroke-linejoin:round;stroke-miterlimit:10;" d="
				M289.971,120.57c1.804,14.264,3.184,28.462,7.508,42.23c2.972,9.463,9.448,18.774,20.19,18.146
				c12.975-0.759,22.913-3.024,31.418-13.495"/>
			
				<path style="fill:none;stroke:#263238;stroke-width:0.9798;stroke-linecap:round;stroke-linejoin:round;stroke-miterlimit:10;" d="
				M319.895,124.717c0,0,4.704-4.696,10.704-0.251"/>
			
				<path style="fill:none;stroke:#263238;stroke-width:0.9798;stroke-linecap:round;stroke-linejoin:round;stroke-miterlimit:10;" d="
				M306.744,126.391c-2.355-1.014-6.327-1.539-9.97,3.58"/>
			
				<path style="fill:none;stroke:#263238;stroke-width:0.9798;stroke-linecap:round;stroke-linejoin:round;stroke-miterlimit:10;" d="
				M320.822,180.668c0,0,0.515,14.888-4.03,17.256c-4.545,2.367-22.472-3.156-32.067,6.313c-9.595,9.469-20.374,34.59-25.676,38.272
				"/>
			<path style="fill:#263238;" d="M326.855,135.23c0,2.127-0.767,3.855-1.715,3.855c-0.948,0-1.715-1.728-1.715-3.855
				c0-2.128,0.767-3.867,1.715-3.867C326.087,131.363,326.855,133.091,326.855,135.23z"/>
			<path style="fill:#263238;" d="M304.862,137.342c0,2.128-0.767,3.855-1.715,3.855c-0.948,0-1.715-1.728-1.715-3.855
				c0-2.127,0.767-3.867,1.715-3.867C304.095,133.475,304.862,135.203,304.862,137.342z"/>
			<path style="fill:#263238;" d="M291.215,126.521c0,0,6.872-1.803,14.405-23.521c0,0,21.326,27.587,44.255,24.077
				c0,0,6.352-7.724,11.928-1.98c4.664,4.805,0.021,20.033-3.895,21.393c-3.916,1.36-5.205,0.076-5.205,0.076
				s-10.965,20.928-0.088,38.604c10.877,17.676,33.937,8.158,41.334-5.439c7.397-13.597,0.217-24.475,0.217-24.475
				s5.221,2.266,5.439,9.291c0,0,4.351-7.705-2.175-18.583c-6.606-11.01-13.603-21.761-20.194-32.783
				c-6.372-10.656-11.126-24.798-22.934-30.491c-13.826-6.666-31.084-4.834-44.888,0.787c-11.389,4.637-17.246,15.759-21.813,27.092
				c-3.241,8.043-5.078,16.624-8.501,24.595c-2.991,6.964-8.328,12.459-11.37,19.464c-8.164,18.801-0.611,40.752,16.785,49.602
				c0,0,1.532-3.878,8.711-4.558c7.179-0.68,8.702-1.36,15.446-1.133c6.744,0.227,8.919-0.453,10.442-4.532
				c1.523-4.079,2.001-12.945,2.001-12.945s-8.811,1.893-15.071-3.585c-6.309-7.478-8.555-11.437-10.077-20.729
				C294.443,147.458,291.215,126.521,291.215,126.521z"/>
			<path style="fill:#263238;" d="M321.115,181.063c0,0-1.296,8.544,8.016,6.067c9.311-2.477,19.4-18.44,19.4-18.44
				S337.282,179.758,321.115,181.063z"/>
			
				<path style="fill:none;stroke:#263238;stroke-width:0.9798;stroke-linecap:round;stroke-linejoin:round;stroke-miterlimit:10;" d="
				M271.221,357.157c0,0-6.444-41.735,16.947-63.441"/>
			
				<path style="fill:none;stroke:#263238;stroke-width:0.9798;stroke-linecap:round;stroke-linejoin:round;stroke-miterlimit:10;" d="
				M289.402,295.093c-8.226-12.763-11.302-34.724,0.638-46.221"/>
			
				<path style="fill:none;stroke:#263238;stroke-width:0.9798;stroke-linecap:round;stroke-linejoin:round;stroke-miterlimit:10;" d="
				M349.516,172.586c0,0,2.048,22.047,28.333,29.515c21.112,5.998,25.923,12.82,27.261,15.49"/>
			
				<path style="fill:none;stroke:#263238;stroke-width:0.9798;stroke-linecap:round;stroke-linejoin:round;stroke-miterlimit:10;" d="
				M304.642,197.995c0,0,10.689,32.416,39.176,32.847c20.802,0.315,31.532-29.114,31.532-29.114"/>
			
				<path style="fill:none;stroke:#263238;stroke-width:0.9798;stroke-linecap:round;stroke-linejoin:round;stroke-miterlimit:10;" d="
				M307.736,297.982c14.872,6.381,31.372,6.885,47.452,7.3"/>
			
				<path style="fill:none;stroke:#263238;stroke-width:0.9798;stroke-linecap:round;stroke-linejoin:round;stroke-miterlimit:10;" d="
				M282.919,299.515c-1.463,1.108-4.411,1.634-5.11,1.752c-13.163,2.215-25.456-2.135-33.514-13.375
				c-4.491-6.264-6.709-13.332-9.077-20.681c-5.245-16.281-10.736-32.372-16.965-48.252c0,0-1.798-4.08-3.726-5.679
				c-3.409-2.828-9.995-7.488-15.053-8.941c-7.247-2.083-20.241-17.962-17.992-22.387c2.249-4.425,13.994,10.673,18.992,11.974"/>
			
				<path style="fill:none;stroke:#263238;stroke-width:0.9798;stroke-linecap:round;stroke-linejoin:round;stroke-miterlimit:10;" d="
				M286.092,239.624c0,0-1.271-13.508,3.305-25.426"/>
			<g style="opacity:0.42;">
				
					<path style="fill:none;stroke:#FFFFFF;stroke-width:0.9798;stroke-linecap:round;stroke-linejoin:round;stroke-miterlimit:10;" d="
					M318.432,92.916c0,0,11.788,20.466,32.418,22.513"/>
				
					<path style="fill:none;stroke:#FFFFFF;stroke-width:0.9798;stroke-linecap:round;stroke-linejoin:round;stroke-miterlimit:10;" d="
					M362.671,148.195c-2.457,13.495-0.447,27.829,5.613,40.028"/>
				
					<path style="fill:none;stroke:#FFFFFF;stroke-width:0.9798;stroke-linecap:round;stroke-linejoin:round;stroke-miterlimit:10;" d="
					M357.767,107.172c6.699,6.114,13.194,12.626,16.404,21.169c2.982,7.934,2.762,16.71,2.978,25.227
					c0.217,8.517,1.059,17.473,5.724,24.472"/>
				
					<path style="fill:none;stroke:#FFFFFF;stroke-width:0.9798;stroke-linecap:round;stroke-linejoin:round;stroke-miterlimit:10;" d="
					M336.268,86.59c4.687,4.875,9.51,9.608,14.462,14.19"/>
				
					<path style="fill:none;stroke:#FFFFFF;stroke-width:0.9798;stroke-linecap:round;stroke-linejoin:round;stroke-miterlimit:10;" d="
					M287.746,142.572c-6.86,12.173-8.486,27.374-4.566,40.865"/>
			</g>
			
				<path style="fill:#FFFFFF;stroke:#263238;stroke-width:0.9798;stroke-linecap:round;stroke-linejoin:round;stroke-miterlimit:10;" d="
				M206.115,204.946c0,0,29.692-44.834,26.541-47.556c-3.145-2.717-32.622,44.562-32.622,44.562s-7.885,1.52-11.271,4.834
				c-3.385,3.314-11.338,24.039-10.321,24.697c1.017,0.658,11.082-16.488,12.003-16.259c0.92,0.229-5.599,20.585-4.679,20.814
				c0.921,0.229,11.538-17.756,12.967-17.198c1.429,0.558-6.852,20.237-5.472,20.58c1.381,0.343,13.861-17.636,14.072-21.536
				C207.546,213.984,206.115,204.946,206.115,204.946z"/>
			
				<path style="fill:none;stroke:#263238;stroke-width:0.9798;stroke-linecap:round;stroke-linejoin:round;stroke-miterlimit:10;" d="
				M359.05,231.158c1.906-1.425,3.737-3.256,5.41-5.592"/>
			
				<path style="fill:none;stroke:#263238;stroke-width:0.9798;stroke-linecap:round;stroke-linejoin:round;stroke-miterlimit:10;" d="
				M334.633,234.086c0,0,9.625,3.776,19.233-0.029"/>
			
				<path style="fill:none;stroke:#263238;stroke-width:0.9798;stroke-linecap:round;stroke-linejoin:round;stroke-miterlimit:10;" d="
				M405.663,240.612c0,0-7.253-5.118-14.974-3.9c0,0,6.083-19.498,1.404-20.96c-3.186-0.995-4.813,4.643-5.593,6.8
				c-1.524,4.214-3.374,8.169-4.996,12.339c-2.967,7.627-2.458,18.466,3.804,24.244"/>
			
				<path style="fill:none;stroke:#263238;stroke-width:0.9798;stroke-linecap:round;stroke-linejoin:round;stroke-miterlimit:10;" d="
				M414.036,257.383c3.377-3.014,6.859-6.173,8.668-10.404c0.996-2.329,1.431-4.871,1.804-7.391
				c0.367-2.478,0.683-4.965,0.947-7.457c0.096-0.905,0.141-1.949-0.486-2.583c-0.541-0.548-1.43-0.572-2.117-0.247
				c-0.687,0.324-1.212,0.93-1.679,1.547c-1.303,1.719-2.334,3.662-3.037,5.727c-0.733,2.151-1.129,4.464-2.304,6.39
				c-0.102,0.168-0.21,0.331-0.322,0.491"/>
			
				<path style="fill:none;stroke:#263238;stroke-width:0.9798;stroke-linecap:round;stroke-linejoin:round;stroke-miterlimit:10;" d="
				M420.491,231.549c1.977-5.763,2.565-12.362,2.557-18.481c-1.349-0.283-2.754,0.383-3.732,1.39
				c-0.979,1.007-1.606,2.318-2.193,3.615c-2.781,6.146-5.07,12.601-8.304,18.468"/>
			
				<path style="fill:none;stroke:#263238;stroke-width:0.9798;stroke-linecap:round;stroke-linejoin:round;stroke-miterlimit:10;" d="
				M419.82,213.454c-0.539-1.49-2.503-1.938-3.901-1.292c-1.397,0.645-2.327,2.035-3.112,3.401
				c-3.415,5.939-5.469,12.633-8.641,18.706"/>
			
				<path style="fill:none;stroke:#263238;stroke-width:0.9798;stroke-linecap:round;stroke-linejoin:round;stroke-miterlimit:10;" d="
				M413.132,214.824c0.275-1.418-1.347-2.607-2.716-2.368c-1.37,0.239-2.413,1.385-3.255,2.535
				c-2.787,3.804-4.547,8.306-7.006,12.348c-2.459,4.042-4.635,7.333-9.139,8.275"/>
			
				<path style="fill:none;stroke:#263238;stroke-width:0.9798;stroke-linecap:round;stroke-linejoin:round;stroke-miterlimit:10;" d="
				M385.259,258.163c0,0,2.697,16.013,5.124,24.723c2.361,8.47,21.558,36.34,51.638,19.511c1.927-1.078,3.264-2.974,3.666-5.145
				c0.63-3.396,0.647-8.779-3.254-14.366c-6.473-9.271-19.957-22.475-22.924-30.903"/>
			
				<path style="fill:none;stroke:#263238;stroke-width:0.9798;stroke-linecap:round;stroke-linejoin:round;stroke-miterlimit:10;" d="
				M415.095,256.828c1.346,3.628,3.339,6.996,5.845,9.879c3.046,3.505,6.801,6.257,10.055,9.553
				c3.255,3.296,6.102,7.394,6.551,12.099"/>
			
				<path style="fill:none;stroke:#263238;stroke-width:0.9798;stroke-linecap:round;stroke-linejoin:round;stroke-miterlimit:10;" d="
				M390.784,284.942c0,0-0.724,16.219-13.035,21.122"/>
			
				<path style="fill:none;stroke:#263238;stroke-width:0.9798;stroke-linecap:round;stroke-linejoin:round;stroke-miterlimit:10;" d="
				M382.79,302.906c0,0,15.891,27.315,8.65,54.849"/>
			
				<path style="fill:none;stroke:#263238;stroke-width:0.9798;stroke-linecap:round;stroke-linejoin:round;stroke-miterlimit:10;" d="
				M216.967,215.272"/>
			
				<path style="fill:none;stroke:#263238;stroke-width:0.9798;stroke-linecap:round;stroke-linejoin:round;stroke-miterlimit:10;" d="
				M183.077,180.484c0,0-1.769-4.857,0.98-6.679c2.749-1.822,16.743,13.276,20.491,13.016"/>
			
				<path style="fill:none;stroke:#263238;stroke-width:0.9798;stroke-linecap:round;stroke-linejoin:round;stroke-miterlimit:10;" d="
				M185.224,173.781c-0.677-1.463,0.226-3.347,1.641-4.026c1.416-0.68,3.123-0.355,4.486,0.433c1.363,0.788,2.456,1.986,3.548,3.146
				c4.729,5.027,9.503,9.344,16.224,10.062"/>
			
				<path style="fill:none;stroke:#263238;stroke-width:0.9798;stroke-linecap:round;stroke-linejoin:round;stroke-miterlimit:10;" d="
				M210.448,183.118c0,0-12.793-12.391-11.895-19.171c0.898-6.78,9.403,10.046,17.707,13.32"/>
			<g>
				<path style="fill:#FFFFFF;" d="M230.947,183.634c-0.459-1.483-1.085-3.123-1.424-4.709c-0.547-2.564-0.813-5.181-1.144-7.781
					c-0.231-1.816-0.628-9.279-3.987-7.18c-5.32,3.325-3.724,22.166-3.724,22.166c-6.383,3.879-7.713,13.022-7.713,13.022"/>
				<path style="opacity:0.2;fill:#263238;" d="M230.947,183.702c-0.614-1.369-1.085-3.281-1.424-4.867
					c-0.547-2.563-0.813-5.181-1.144-7.781c-0.231-1.816-0.628-9.279-3.987-7.18c-5.32,3.325-3.724,22.166-3.724,22.166
					c-6.383,3.879-7.713,13.022-7.713,13.022"/>
			</g>
			
				<path style="fill:none;stroke:#263238;stroke-width:0.9798;stroke-linecap:round;stroke-linejoin:round;stroke-miterlimit:10;" d="
				M231.091,182.703c-0.614-1.369-1.185-2.733-1.523-4.32c-0.547-2.563-0.813-5.181-1.144-7.781
				c-0.231-1.816-0.628-9.279-3.987-7.18c-5.32,3.325-3.724,22.166-3.724,22.166c-6.383,3.879-7.713,13.022-7.713,13.022"/>
			
				<path style="fill:none;stroke:#263238;stroke-width:0.9798;stroke-linecap:round;stroke-linejoin:round;stroke-miterlimit:10;" d="
				M281.712,270.126c-2.552-9.305-28.713-28.124-37.202-47.44c-2.357-5.362-3.641-11.306-5.221-16.947
				c-1.948-6.951-4.307-13.547-6.971-20.234c-0.391-0.98-0.818-1.892-1.226-2.802"/>
			<path style="opacity:0.1;fill:#263238;" d="M442.309,301.658c-3.521,2.315-10.367,6.21-16.888,6.462
				c-1.991-1.258-3.888-2.64-5.693-4.147c-11.413-9.539-19.429-24.289-18.686-39.524c0.172-3.318,0.77-6.719,2.548-9.484
				c2.774-4.341,7.764-6.345,10.789-10.424c3.464-4.673,3.437-11.004,7.405-15.58c-0.04,0.263-0.053,0.401-0.053,0.401
				s3.623-2.723,3.623,3.359c0,6.069-2.097,17.073-9.94,23.709c0,0,4.141,10.106,10.524,15.428c0,0,1.801-2.685,5.061-3.239
				c0,0,7.878,9.501,10.798,12.916c2.367,2.768,4.489,9.161,3.851,14.723C445.395,298.466,444.166,300.437,442.309,301.658z"/>
			<path style="opacity:0.1;" d="M269.214,254.26c0-0.697,13.714-15.268,17.28-30.592c0,0-0.34,15.16-0.538,17.658
				c0,0-0.035,0.542-0.028,0.723c0.293,8.217,1.117,9.658,1.117,9.658s-5.126,11.841-5.126,16.253L269.214,254.26z"/>
		</g>
		<g>
			<path style="fill:#263238;" d="M344.379,357.487c1.817-5.409,3.375-34.885-0.519-39.483s-76.732-6.527-78.919,0.541
				c-2.674,8.641,1.732,38.895,1.732,38.895L344.379,357.487z"/>
			
				<path style="fill:none;stroke:#263238;stroke-width:2.9393;stroke-linecap:round;stroke-linejoin:round;stroke-miterlimit:10;" d="
				M343.882,331.431c2.111-2.733,6.282-3.547,9.345-2.311c3.674,1.484,3.98,6.653,3.001,10.093
				c-1.523,5.353-6.313,12.835-12.495,12.012"/>
			
				<path style="fill:none;stroke:#263238;stroke-width:0.9798;stroke-linecap:round;stroke-linejoin:round;stroke-miterlimit:10;" d="
				M301.948,313.606c1.376-1.243,1.921-3.234,1.984-5.13c0.077-2.333-0.484-4.685-1.599-6.709c-0.513-0.93-1.137-1.788-1.79-2.617
				c-0.703-0.893-1.441-1.755-2.211-2.585c-0.09-0.096-0.258-0.094-0.321-0.211c-0.063-0.117,0.224-0.122,0.115-0.05"/>
			
				<path style="fill:none;stroke:#263238;stroke-width:0.9798;stroke-linecap:round;stroke-linejoin:round;stroke-miterlimit:10;" d="
				M320.15,286.071c5.937-4.179,9.232-12.085,8.11-19.456"/>
			
				<path style="fill:none;stroke:#263238;stroke-width:0.9798;stroke-linecap:round;stroke-linejoin:round;stroke-miterlimit:10;" d="
				M326.746,255.391c0,0-2.858-8.014-9.012-11.678"/>
			<path style="opacity:0.2;fill:#FFFFFF;" d="M344.567,357.585c1.817-5.409,3.375-34.886-0.519-39.483
				c-3.894-4.597-76.732-6.527-78.92,0.541c-2.674,8.64,1.732,38.895,1.732,38.895L344.567,357.585z"/>
			
				<path style="fill:none;stroke:#263238;stroke-width:0.9798;stroke-linecap:round;stroke-linejoin:round;stroke-miterlimit:10;" d="
				M344.379,357.487c1.817-5.409,3.375-34.885-0.519-39.483s-76.732-6.527-78.919,0.541c-2.674,8.641,1.732,38.895,1.732,38.895
				L344.379,357.487z"/>
			<path style="fill:#263238;" d="M339.798,318.401c0,0.602-15.917,1.089-35.551,1.089c-19.634,0-35.551-0.488-35.551-1.089
				c0-0.602,15.917-1.089,35.551-1.089C323.881,317.312,339.798,317.799,339.798,318.401z"/>
			
				<path style="fill:#FFFFFF;stroke:#263238;stroke-width:0.9798;stroke-linecap:round;stroke-linejoin:round;stroke-miterlimit:10;" d="
				M316.351,255.891c3.004,1.62,5.085,4.958,5.284,8.475c0.198,3.518-1.493,7.087-4.295,9.061
				c-3.669,2.586-8.452,2.303-12.842,2.923c-4.39,0.62-9.358,3.127-9.829,7.716c-0.239,2.331,0.799,4.612,2.126,6.506
				c2.178,3.109,5.142,5.505,7.792,8.188c2.65,2.683,5.092,5.865,5.744,9.654c0.652,3.789-1.039,8.234-4.529,9.5
				c2.176,0,4.407,0.209,6.583,0.209c4.302,0,5.841-6.89,5.434-11.351c-0.407-4.461-2.968-8.521-6.375-11.256
				c-1.728-1.387-3.704-2.504-5.071-4.275c-1.368-1.771-1.936-4.517-0.543-6.266c1.74-2.185,5.019-1.456,7.738-1.646
				c5.708-0.399,10.279-6.116,10.597-12.066C324.482,265.312,320.986,259.385,316.351,255.891z"/>
		</g>
	</g>
</g>
<g id="Videos">
	<g>
		<g>
			<rect x="550.224" y="135.936" style="fill:#263238;" width="62.323" height="6.191"/>
			<rect x="550.224" y="147.906" style="fill:#263238;" width="62.323" height="6.191"/>
			<rect x="550.224" y="159.875" style="fill:#263238;" width="62.323" height="6.191"/>
			<g>
				<path style="opacity:0.1;" d="M525.416,192.577h-91.363c-4.921,0-8.91-3.989-8.91-8.91v-50.489c0-4.921,3.989-8.91,8.91-8.91
					h91.363c4.921,0,8.91,3.989,8.91,8.91v50.489C534.326,188.587,530.337,192.577,525.416,192.577z"/>
				<g>
					<path style="fill:#92E3A9;stroke:#263238;stroke-miterlimit:10;" d="M532.688,187.318h-91.363
						c-4.921,0-8.911-3.989-8.911-8.911v-50.489c0-4.921,3.989-8.91,8.91-8.91h91.363c4.921,0,8.911,3.989,8.911,8.91v50.489
						C541.599,183.328,537.609,187.318,532.688,187.318z"/>
					<circle style="fill:#FFFFFF;" cx="487.052" cy="153.477" r="23.113"/>
					<polygon style="fill:#263238;" points="480.487,166.829 480.487,141.306 500.774,154.067 					"/>
				</g>
			</g>
		</g>
		<g>
			<rect x="550.224" y="226.375" style="fill:#263238;" width="62.323" height="6.191"/>
			<rect x="550.224" y="238.344" style="fill:#263238;" width="62.323" height="6.191"/>
			<rect x="550.224" y="250.314" style="fill:#263238;" width="62.323" height="6.191"/>
			<g>
				<path style="opacity:0.1;" d="M525.416,281.218h-91.363c-4.921,0-8.91-3.989-8.91-8.91v-50.489c0-4.921,3.989-8.911,8.91-8.911
					h91.363c4.921,0,8.91,3.989,8.91,8.911v50.489C534.326,277.229,530.337,281.218,525.416,281.218z"/>
				<g>
					<path style="fill:#92E3A9;stroke:#263238;stroke-miterlimit:10;" d="M532.688,276.345h-91.363c-4.921,0-8.911-3.989-8.911-8.91
						v-50.489c0-4.921,3.989-8.91,8.911-8.91h91.363c4.921,0,8.911,3.989,8.911,8.91v50.489
						C541.599,272.355,537.609,276.345,532.688,276.345z"/>
					
						<ellipse transform="matrix(0.9261 -0.3773 0.3773 0.9261 -55.5866 201.7312)" style="fill:#FFFFFF;" cx="487.052" cy="242.73" rx="23.113" ry="23.113"/>
					<polygon style="fill:#263238;" points="480.487,256.082 480.487,230.56 500.774,243.321 					"/>
				</g>
			</g>
		</g>
		<g>
			<rect x="550.224" y="314.729" style="fill:#263238;" width="62.323" height="6.191"/>
			<rect x="550.224" y="326.698" style="fill:#263238;" width="62.323" height="6.191"/>
			<rect x="550.224" y="338.667" style="fill:#263238;" width="62.323" height="6.191"/>
			<g>
				<path style="opacity:0.1;" d="M525.416,369.341h-91.363c-4.921,0-8.91-3.989-8.91-8.91v-50.489c0-4.921,3.989-8.911,8.91-8.911
					h91.363c4.921,0,8.91,3.989,8.91,8.911v50.489C534.326,365.352,530.337,369.341,525.416,369.341z"/>
				<g>
					<path style="fill:#92E3A9;stroke:#263238;stroke-miterlimit:10;" d="M532.688,365.372h-91.363c-4.921,0-8.911-3.989-8.911-8.91
						v-50.489c0-4.921,3.989-8.91,8.911-8.91h91.363c4.921,0,8.911,3.989,8.911,8.91v50.489
						C541.599,361.382,537.609,365.372,532.688,365.372z"/>
					
						<ellipse transform="matrix(0.925 -0.38 0.38 0.925 -89.6185 209.9835)" style="fill:#FFFFFF;" cx="487.052" cy="331.984" rx="23.113" ry="23.113"/>
					<polygon style="fill:#263238;" points="480.487,345.336 480.487,319.813 500.774,332.574 					"/>
				</g>
			</g>
		</g>
	</g>
</g>
</svg>
